<svg xmlns="http://www.w3.org/2000/svg" version="1.1" xmlns:xlink="http://www.w3.org/1999/xlink" xmlns:svgjs="http://svgjs.com/svgjs" width="498.000000pt" height="472.000000pt"><svg version="1.0" xmlns="http://www.w3.org/2000/svg" width="498.000000pt" height="472.000000pt" viewBox="0 0 498.000000 472.000000" preserveAspectRatio="xMidYMid meet">

<g transform="translate(0.000000,472.000000) scale(0.100000,-0.100000)" fill="#000000" stroke="none">
<path d="M2285 3995 c-239 -53 -535 -300 -748 -625 -130 -199 -258 -497 -298
-697 -7 -35 -16 -63 -20 -63 -4 0 -12 14 -19 30 -15 37 -69 85 -117 105 -45
19 -143 19 -189 0 -105 -44 -175 -148 -194 -290 -17 -136 -16 -302 4 -368 24
-82 108 -168 185 -191 30 -9 66 -16 80 -16 74 0 144 43 203 124 32 44 30 46
54 -74 54 -276 202 -549 408 -756 207 -206 416 -314 704 -364 421 -73 842 57
1147 355 257 250 415 642 416 1030 1 111 -20 308 -37 368 -5 15 3 17 70 17
l76 0 2 -347 c3 -395 -6 -361 93 -348 l52 6 9 342 9 342 30 3 c17 1 49 5 73 8
l42 5 0 75 0 74 -190 2 c-104 1 -207 2 -227 3 l-38 0 -6 -75 c-3 -41 -6 -66
-7 -55 -4 42 -85 265 -132 364 -143 298 -369 576 -629 772 -126 95 -348 209
-465 239 -93 23 -247 26 -341 5z m267 -110 c249 -43 539 -238 776 -520 270
-322 432 -717 449 -1101 10 -217 -1 -219 -58 -9 -27 99 -62 239 -78 311 -44
192 -38 184 -131 184 -55 0 -81 -4 -89 -14 -12 -15 -49 -144 -127 -446 -24
-96 -59 -221 -76 -277 -17 -56 -28 -108 -25 -117 5 -13 23 -16 90 -16 94 0 98
2 118 68 14 47 18 48 137 34 l54 -7 16 -50 17 -49 57 3 57 2 -15 -53 c-123
-415 -408 -720 -792 -848 -273 -91 -578 -75 -854 45 -500 216 -824 815 -758
1405 63 575 434 1188 845 1398 55 27 147 54 220 62 33 4 65 8 71 9 6 0 50 -6
96 -14z m-1529 -1360 c29 -33 40 -58 47 -97 9 -59 7 -68 -18 -68 -58 0 -111
-78 -98 -143 7 -34 51 -87 73 -87 19 0 16 -17 -9 -40 -27 -25 -64 -26 -105 0
-37 22 -58 58 -67 118 -5 36 -2 48 21 84 23 34 28 52 27 102 0 34 -4 72 -8 86
-5 20 0 32 24 58 42 44 67 41 113 -13z m2523 -298 c7 -28 6 -28 -37 -25 -33 2
-43 7 -40 18 40 161 42 165 57 95 8 -33 17 -73 20 -88z"></path>
<path d="M2375 2751 l-30 -6 -5 -150 -5 -150 -50 -7 c-27 -3 -69 -7 -92 -7
l-43 -1 0 160 0 160 -79 0 -80 0 -6 -42 c-3 -24 -5 -221 -3 -438 l3 -395 69
-3 c41 -2 74 2 80 8 7 7 12 78 13 198 l2 187 95 3 96 3 2 -193 3 -193 84 -3
84 -3 -7 338 c-3 186 -9 384 -13 441 l-6 102 -41 -1 c-23 -1 -54 -4 -71 -8z"></path>
<path d="M2633 2747 c-2 -4 -6 -148 -8 -320 -2 -171 -6 -365 -10 -429 l-8
-118 237 0 c145 0 245 4 257 10 16 9 19 22 19 80 0 44 -4 72 -12 77 -7 4 -74
7 -148 8 l-135 0 2 104 c1 57 4 106 7 108 2 2 49 9 105 15 l101 11 0 74 0 73
-110 0 -110 0 0 54 0 54 63 6 c34 3 102 8 151 12 l89 6 -6 85 c-3 47 -8 87 -9
88 -7 7 -470 9 -475 2z"></path>
<path d="M1567 2738 c-45 -12 -124 -87 -153 -144 -26 -52 -24 -143 4 -206 23
-53 62 -85 194 -159 45 -25 84 -54 88 -65 4 -10 3 -34 -2 -52 -18 -67 -94 -67
-178 -1 -35 28 -57 38 -70 34 -22 -7 -80 -73 -80 -91 0 -7 20 -39 44 -71 38
-52 53 -64 110 -86 81 -33 136 -34 201 -3 98 45 154 137 155 251 0 123 -56
193 -210 266 -36 17 -71 38 -77 47 -18 22 -16 67 3 83 25 20 98 14 140 -12
l37 -22 54 56 c62 64 61 69 -14 125 -81 61 -151 75 -246 50z"></path>
<path d="M88 2753 c-16 -2 -28 -9 -28 -15 0 -6 20 -45 43 -87 24 -42 69 -122
100 -178 l57 -101 0 -229 c0 -125 4 -234 9 -241 5 -9 28 -12 77 -10 l69 3 8
220 7 220 86 190 c47 105 88 196 91 203 4 10 -14 12 -82 10 l-88 -3 -49 -90
c-27 -49 -52 -93 -57 -98 -4 -4 -24 35 -45 87 -20 52 -43 99 -49 104 -14 12
-111 22 -149 15z"></path>
<path d="M4613 2739 c-56 -13 -126 -77 -159 -145 -23 -47 -26 -63 -22 -118 8
-92 35 -133 127 -194 42 -27 92 -57 111 -67 70 -35 84 -63 58 -120 -23 -52
-95 -45 -173 15 -29 22 -56 40 -61 40 -6 0 -29 -20 -53 -44 l-44 -45 31 -48
c44 -68 78 -97 145 -122 103 -38 186 -21 260 53 63 63 81 109 80 203 -1 65 -6
90 -24 122 -26 46 -107 107 -195 146 -32 14 -65 33 -71 42 -33 44 2 103 61
103 18 0 55 -12 82 -26 l49 -26 38 43 c61 69 63 75 25 110 -79 73 -171 100
-265 78z"></path>
</g>
</svg><style>@media (prefers-color-scheme: light) { :root { filter: contrast(1) brightness(0.5); } }
</style></svg>